{"asset":{"version":"2.0","generator":"Blockbench 5.1.3 glTF exporter"},"scenes":[{"nodes":[0],"name":"blockbench_export"}],"scene":0,"nodes":[{"translation":[0,0.375,0],"name":"mesh","mesh":0}],"bufferViews":[{"buffer":0,"byteOffset":0,"byteLength":2400,"target":34962,"byteStride":12},{"buffer":0,"byteOffset":2400,"byteLength":2400,"target":34962,"byteStride":12},{"buffer":0,"byteOffset":4800,"byteLength":1600,"target":34962,"byteStride":8},{"buffer":0,"byteOffset":6400,"byteLength":60,"target":34963},{"buffer":0,"byteOffset":6460,"byteLength":12,"target":34963},{"buffer":0,"byteOffset":6472,"byteLength":24,"target":34963},{"buffer":0,"byteOffset":6496,"byteLength":12,"target":34963},{"buffer":0,"byteOffset":6508,"byteLength":36,"target":34963},{"buffer":0,"byteOffset":6544,"byteLength":12,"target":34963},{"buffer":0,"byteOffset":6556,"byteLength":60,"target":34963},{"buffer":0,"byteOffset":6616,"byteLength":12,"target":34963},{"buffer":0,"byteOffset":6628,"byteLength":84,"target":34963},{"buffer":0,"byteOffset":6712,"byteLength":48,"target":34963},{"buffer":0,"byteOffset":6760,"byteLength":48,"target":34963},{"buffer":0,"byteOffset":6808,"byteLength":48,"target":34963},{"buffer":0,"byteOffset":6856,"byteLength":48,"target":34963},{"buffer":0,"byteOffset":6904,"byteLength":96,"target":34963}],"buffers":[{"byteLength":7000,"uri":"data:application/octet-stream;base64,"}],"accessors":[{"bufferView":0,"componentType":5126,"count":200,"max":[0.75,3.375,0.75],"min":[-0.75,-0.375,-2.0625],"type":"VEC3"},{"bufferView":1,"componentType":5126,"count":200,"max":[1,1,1],"min":[-1,-1,-1],"type":"VEC3"},{"bufferView":2,"componentType":5126,"count":200,"max":[1,0.9950000047683716],"min":[0,0],"type":"VEC2"},{"bufferView":3,"componentType":5123,"count":30,"max":[19],"min":[0],"type":"SCALAR"},{"bufferView":4,"componentType":5123,"count":6,"max":[23],"min":[20],"type":"SCALAR"},{"bufferView":5,"componentType":5123,"count":12,"max":[31],"min":[24],"type":"SCALAR"},{"bufferView":6,"componentType":5123,"count":6,"max":[35],"min":[32],"type":"SCALAR"},{"bufferView":7,"componentType":5123,"count":18,"max":[47],"min":[36],"type":"SCALAR"},{"bufferView":8,"componentType":5123,"count":6,"max":[51],"min":[48],"type":"SCALAR"},{"bufferView":9,"componentType":5123,"count":30,"max":[71],"min":[52],"type":"SCALAR"},{"bufferView":10,"componentType":5123,"count":6,"max":[75],"min":[72],"type":"SCALAR"},{"bufferView":11,"componentType":5123,"count":42,"max":[103],"min":[76],"type":"SCALAR"},{"bufferView":12,"componentType":5123,"count":24,"max":[119],"min":[104],"type":"SCALAR"},{"bufferView":13,"componentType":5123,"count":24,"max":[135],"min":[120],"type":"SCALAR"},{"bufferView":14,"componentType":5123,"count":24,"max":[151],"min":[136],"type":"SCALAR"},{"bufferView":15,"componentType":5123,"count":24,"max":[167],"min":[152],"type":"SCALAR"},{"bufferView":16,"componentType":5123,"count":48,"max":[199],"min":[168],"type":"SCALAR"}],"materials":[{"pbrMetallicRoughness":{"metallicFactor":0,"roughnessFactor":1,"baseColorTexture":{"index":0}},"alphaMode":"MASK","alphaCutoff":0.05,"doubleSided":true},{"pbrMetallicRoughness":{"metallicFactor":0,"roughnessFactor":1,"baseColorTexture":{"index":1}},"alphaMode":"MASK","alphaCutoff":0.05,"doubleSided":true}],"textures":[{"sampler":0,"source":0,"name":"grating_14.jpg"},{"sampler":1,"source":1,"name":"Filing_Cab"}],"samplers":[{"magFilter":9728,"minFilter":9728,"wrapS":33071,"wrapT":33071},{"magFilter":9728,"minFilter":9728,"wrapS":33071,"wrapT":33071}],"images":[{"mimeType":"image/png","uri":"data:image/png;base64,"},{"mimeType":"image/png","uri":"data:image/png;base64,"}],"meshes":[{"primitives":[{"mode":4,"attributes":{"POSITION":0,"NORMAL":1,"TEXCOORD_0":2},"indices":3,"material":0},{"mode":4,"attributes":{"POSITION":0,"NORMAL":1,"TEXCOORD_0":2},"indices":4,"material":1},{"mode":4,"attributes":{"POSITION":0,"NORMAL":1,"TEXCOORD_0":2},"indices":5,"material":0},{"mode":4,"attributes":{"POSITION":0,"NORMAL":1,"TEXCOORD_0":2},"indices":6,"material":1},{"mode":4,"attributes":{"POSITION":0,"NORMAL":1,"TEXCOORD_0":2},"indices":7,"material":0},{"mode":4,"attributes":{"POSITION":0,"NORMAL":1,"TEXCOORD_0":2},"indices":8,"material":1},{"mode":4,"attributes":{"POSITION":0,"NORMAL":1,"TEXCOORD_0":2},"indices":9,"material":0},{"mode":4,"attributes":{"POSITION":0,"NORMAL":1,"TEXCOORD_0":2},"indices":10,"material":1},{"mode":4,"attributes":{"POSITION":0,"NORMAL":1,"TEXCOORD_0":2},"indices":11,"material":0},{"mode":4,"attributes":{"POSITION":0,"NORMAL":1,"TEXCOORD_0":2},"indices":12,"material":1},{"mode":4,"attributes":{"POSITION":0,"NORMAL":1,"TEXCOORD_0":2},"indices":13,"material":0},{"mode":4,"attributes":{"POSITION":0,"NORMAL":1,"TEXCOORD_0":2},"indices":14,"material":1},{"mode":4,"attributes":{"POSITION":0,"NORMAL":1,"TEXCOORD_0":2},"indices":15,"material":0},{"mode":4,"attributes":{"POSITION":0,"NORMAL":1,"TEXCOORD_0":2},"indices":16,"material":1}]}]}