{"asset":{"version":"2.0","generator":"Blockbench 5.1.3 glTF exporter"},"scenes":[{"nodes":[4],"name":"blockbench_export"}],"scene":0,"nodes":[{"translation":[0,0.024999999999999967,0],"name":"hose1","mesh":0},{"translation":[0,0.21249999999999997,0],"name":"hose2","mesh":1},{"translation":[0,-0.125,0],"name":"tip","mesh":2},{"translation":[0,0.1687500000000003,0],"name":"guage","mesh":3},{"translation":[0,0.125,0],"name":"hose","children":[0,1,2,3]}],"bufferViews":[{"buffer":0,"byteOffset":0,"byteLength":1080,"target":34962,"byteStride":12},{"buffer":0,"byteOffset":1080,"byteLength":1080,"target":34962,"byteStride":12},{"buffer":0,"byteOffset":2160,"byteLength":720,"target":34962,"byteStride":8},{"buffer":0,"byteOffset":2880,"byteLength":216,"target":34963},{"buffer":0,"byteOffset":3096,"byteLength":1080,"target":34962,"byteStride":12},{"buffer":0,"byteOffset":4176,"byteLength":1080,"target":34962,"byteStride":12},{"buffer":0,"byteOffset":5256,"byteLength":720,"target":34962,"byteStride":8},{"buffer":0,"byteOffset":5976,"byteLength":216,"target":34963},{"buffer":0,"byteOffset":6192,"byteLength":1440,"target":34962,"byteStride":12},{"buffer":0,"byteOffset":7632,"byteLength":1440,"target":34962,"byteStride":12},{"buffer":0,"byteOffset":9072,"byteLength":960,"target":34962,"byteStride":8},{"buffer":0,"byteOffset":10032,"byteLength":288,"target":34963},{"buffer":0,"byteOffset":10320,"byteLength":1440,"target":34962,"byteStride":12},{"buffer":0,"byteOffset":11760,"byteLength":1440,"target":34962,"byteStride":12},{"buffer":0,"byteOffset":13200,"byteLength":960,"target":34962,"byteStride":8},{"buffer":0,"byteOffset":14160,"byteLength":288,"target":34963}],"buffers":[{"byteLength":14448,"uri":"data:application/octet-stream;base64,"}],"accessors":[{"bufferView":0,"componentType":5126,"count":90,"max":[0.0625,0.15625,0.05648333206772804],"min":[-0.0625,0.09375,-0.06851666420698166],"type":"VEC3"},{"bufferView":1,"componentType":5126,"count":90,"max":[0.985255777835846,1,1],"min":[-0.985255777835846,-1,-0.9379884600639343],"type":"VEC3"},{"bufferView":2,"componentType":5126,"count":90,"max":[0.984375,0.234375],"min":[0.015625,0.078125],"type":"VEC2"},{"bufferView":3,"componentType":5123,"count":108,"max":[89],"min":[0],"type":"SCALAR"},{"bufferView":4,"componentType":5126,"count":90,"max":[0.0625,0.46875,0.05648333206772804],"min":[-0.0625,0.09375,-0.06851666420698166],"type":"VEC3"},{"bufferView":5,"componentType":5126,"count":90,"max":[0.985255777835846,1,1],"min":[-0.985255777835846,-1,-0.9379884600639343],"type":"VEC3"},{"bufferView":6,"componentType":5126,"count":90,"max":[0.984375,0.109375],"min":[0.015625,0.015625],"type":"VEC2"},{"bufferView":7,"componentType":5123,"count":108,"max":[89],"min":[0],"type":"SCALAR"},{"bufferView":8,"componentType":5126,"count":120,"max":[0.125,0.25,0.125],"min":[-0.125,0,-0.125],"type":"VEC3"},{"bufferView":9,"componentType":5126,"count":120,"max":[0.9701424837112427,1,0.9701424837112427],"min":[-0.9701424837112427,-0.7071067690849304,-0.9701424837112427],"type":"VEC3"},{"bufferView":10,"componentType":5126,"count":120,"max":[0.984375,0.171875],"min":[0.015625,0.015625],"type":"VEC2"},{"bufferView":11,"componentType":5123,"count":144,"max":[119],"min":[0],"type":"SCALAR"},{"bufferView":12,"componentType":5126,"count":120,"max":[0.125,0.1875,0.125],"min":[-0.125,0,-0.125],"type":"VEC3"},{"bufferView":13,"componentType":5126,"count":120,"max":[1,1,1],"min":[-1,-1,-1],"type":"VEC3"},{"bufferView":14,"componentType":5126,"count":120,"max":[0.984375,0.296875],"min":[0.015625,0.140625],"type":"VEC2"},{"bufferView":15,"componentType":5123,"count":144,"max":[119],"min":[0],"type":"SCALAR"}],"materials":[{"pbrMetallicRoughness":{"metallicFactor":0,"roughnessFactor":1,"baseColorTexture":{"index":0}},"alphaMode":"MASK","alphaCutoff":0.05,"doubleSided":true},{"pbrMetallicRoughness":{"metallicFactor":0,"roughnessFactor":1,"baseColorTexture":{"index":1}},"alphaMode":"MASK","alphaCutoff":0.05,"doubleSided":true}],"textures":[{"sampler":0,"source":0,"name":"texture"},{"sampler":1,"source":1,"name":"texture"}],"samplers":[{"magFilter":9728,"minFilter":9728,"wrapS":33071,"wrapT":33071},{"magFilter":9728,"minFilter":9728,"wrapS":33071,"wrapT":33071}],"images":[{"mimeType":"image/png","uri":"data:image/png;base64,"},{"mimeType":"image/png","uri":"data:image/png;base64,"}],"meshes":[{"primitives":[{"mode":4,"attributes":{"POSITION":0,"NORMAL":1,"TEXCOORD_0":2},"indices":3,"material":0}]},{"primitives":[{"mode":4,"attributes":{"POSITION":4,"NORMAL":5,"TEXCOORD_0":6},"indices":7,"material":0}]},{"primitives":[{"mode":4,"attributes":{"POSITION":8,"NORMAL":9,"TEXCOORD_0":10},"indices":11,"material":1}]},{"primitives":[{"mode":4,"attributes":{"POSITION":12,"NORMAL":13,"TEXCOORD_0":14},"indices":15,"material":1}]}]}