{"asset":{"version":"2.0","generator":"Blockbench 5.1.3 glTF exporter"},"scenes":[{"nodes":[0,1,2,3,4,5,6],"name":"blockbench_export"}],"scene":0,"nodes":[{"name":"floor","mesh":0},{"translation":[0,2,0],"name":"ceiling","mesh":1},{"translation":[0,0,0.875],"name":"officedoor","mesh":2},{"rotation":[0.5000000000000001,0.5000000000000001,0.5000000000000001,0.5000000000000001],"translation":[0.0625,0.8125,0.75],"name":"doorknob","mesh":3},{"rotation":[0.5000000000000001,0.5000000000000001,0.5000000000000001,0.5000000000000001],"translation":[-0.0625,0.8125,0.75],"name":"doorknob","mesh":4},{"rotation":[0.5000000000000001,-0.5000000000000001,-0.5000000000000001,0.5000000000000001],"translation":[0.0625,0.8125,0.75],"name":"doorknob","mesh":5},{"rotation":[0.5000000000000001,-0.5000000000000001,-0.5000000000000001,0.5000000000000001],"translation":[-0.0625,0.8125,0.75],"name":"doorknob","mesh":6}],"bufferViews":[{"buffer":0,"byteOffset":0,"byteLength":48,"target":34962,"byteStride":12},{"buffer":0,"byteOffset":48,"byteLength":48,"target":34962,"byteStride":12},{"buffer":0,"byteOffset":96,"byteLength":32,"target":34962,"byteStride":8},{"buffer":0,"byteOffset":128,"byteLength":12,"target":34963},{"buffer":0,"byteOffset":140,"byteLength":48,"target":34962,"byteStride":12},{"buffer":0,"byteOffset":188,"byteLength":48,"target":34962,"byteStride":12},{"buffer":0,"byteOffset":236,"byteLength":32,"target":34962,"byteStride":8},{"buffer":0,"byteOffset":268,"byteLength":12,"target":34963},{"buffer":0,"byteOffset":280,"byteLength":1968,"target":34962,"byteStride":12},{"buffer":0,"byteOffset":2248,"byteLength":1968,"target":34962,"byteStride":12},{"buffer":0,"byteOffset":4216,"byteLength":1312,"target":34962,"byteStride":8},{"buffer":0,"byteOffset":5528,"byteLength":480,"target":34963},{"buffer":0,"byteOffset":6008,"byteLength":720,"target":34962,"byteStride":12},{"buffer":0,"byteOffset":6728,"byteLength":720,"target":34962,"byteStride":12},{"buffer":0,"byteOffset":7448,"byteLength":480,"target":34962,"byteStride":8},{"buffer":0,"byteOffset":7928,"byteLength":144,"target":34963},{"buffer":0,"byteOffset":8072,"byteLength":720,"target":34962,"byteStride":12},{"buffer":0,"byteOffset":8792,"byteLength":720,"target":34962,"byteStride":12},{"buffer":0,"byteOffset":9512,"byteLength":480,"target":34962,"byteStride":8},{"buffer":0,"byteOffset":9992,"byteLength":144,"target":34963},{"buffer":0,"byteOffset":10136,"byteLength":720,"target":34962,"byteStride":12},{"buffer":0,"byteOffset":10856,"byteLength":720,"target":34962,"byteStride":12},{"buffer":0,"byteOffset":11576,"byteLength":480,"target":34962,"byteStride":8},{"buffer":0,"byteOffset":12056,"byteLength":144,"target":34963},{"buffer":0,"byteOffset":12200,"byteLength":720,"target":34962,"byteStride":12},{"buffer":0,"byteOffset":12920,"byteLength":720,"target":34962,"byteStride":12},{"buffer":0,"byteOffset":13640,"byteLength":480,"target":34962,"byteStride":8},{"buffer":0,"byteOffset":14120,"byteLength":144,"target":34963}],"buffers":[{"byteLength":14264,"uri":"data:application/octet-stream;base64,"}],"accessors":[{"bufferView":0,"componentType":5126,"count":4,"max":[1,0,1],"min":[-1,0,-1],"type":"VEC3"},{"bufferView":1,"componentType":5126,"count":4,"max":[0,1,0],"min":[0,1,0],"type":"VEC3"},{"bufferView":2,"componentType":5126,"count":4,"max":[0.046875,0.046875],"min":[0.015625,0.015625],"type":"VEC2"},{"bufferView":3,"componentType":5123,"count":6,"max":[3],"min":[0],"type":"SCALAR"},{"bufferView":4,"componentType":5126,"count":4,"max":[1,0,1],"min":[-1,0,-1],"type":"VEC3"},{"bufferView":5,"componentType":5126,"count":4,"max":[0,1,0],"min":[0,1,0],"type":"VEC3"},{"bufferView":6,"componentType":5126,"count":4,"max":[0.109375,0.046875],"min":[0.078125,0.015625],"type":"VEC2"},{"bufferView":7,"componentType":5123,"count":6,"max":[3],"min":[0],"type":"SCALAR"},{"bufferView":8,"componentType":5126,"count":164,"max":[1,2,0.0625],"min":[-1,0,-0.125],"type":"VEC3"},{"bufferView":9,"componentType":5126,"count":164,"max":[1,1,1],"min":[-1,-1,-1],"type":"VEC3"},{"bufferView":10,"componentType":5126,"count":164,"max":[0.5703125,0.5625],"min":[0,0],"type":"VEC2"},{"bufferView":11,"componentType":5123,"count":240,"max":[163],"min":[0],"type":"SCALAR"},{"bufferView":12,"componentType":5126,"count":60,"max":[0.0625,0.0625,0.03737976402044296],"min":[-0.0625,-0.0625,-0.03737976402044296],"type":"VEC3"},{"bufferView":13,"componentType":5126,"count":60,"max":[0.7672089338302612,0.8377872705459595,1],"min":[-0.7672089338302612,-0.8377872705459595,-1],"type":"VEC3"},{"bufferView":14,"componentType":5126,"count":60,"max":[0.984375,0.171875],"min":[0.015625,0.078125],"type":"VEC2"},{"bufferView":15,"componentType":5123,"count":72,"max":[59],"min":[0],"type":"SCALAR"},{"bufferView":16,"componentType":5126,"count":60,"max":[0.0625,0.0625,0.03737976402044296],"min":[-0.0625,-0.0625,-0.03737976402044296],"type":"VEC3"},{"bufferView":17,"componentType":5126,"count":60,"max":[0.7672089338302612,0.8377872705459595,1],"min":[-0.7672089338302612,-0.8377872705459595,-1],"type":"VEC3"},{"bufferView":18,"componentType":5126,"count":60,"max":[0.984375,0.109375],"min":[0.015625,0.015625],"type":"VEC2"},{"bufferView":19,"componentType":5123,"count":72,"max":[59],"min":[0],"type":"SCALAR"},{"bufferView":20,"componentType":5126,"count":60,"max":[0.0625,0.0625,0.03737976402044296],"min":[-0.0625,-0.0625,-0.03737976402044296],"type":"VEC3"},{"bufferView":21,"componentType":5126,"count":60,"max":[0.7672089338302612,0.8377872705459595,1],"min":[-0.7672089338302612,-0.8377872705459595,-1],"type":"VEC3"},{"bufferView":22,"componentType":5126,"count":60,"max":[0.984375,0.109375],"min":[0.015625,0.015625],"type":"VEC2"},{"bufferView":23,"componentType":5123,"count":72,"max":[59],"min":[0],"type":"SCALAR"},{"bufferView":24,"componentType":5126,"count":60,"max":[0.0625,0.0625,0.03737976402044296],"min":[-0.0625,-0.0625,-0.03737976402044296],"type":"VEC3"},{"bufferView":25,"componentType":5126,"count":60,"max":[0.7672089338302612,0.8377872705459595,1],"min":[-0.7672089338302612,-0.8377872705459595,-1],"type":"VEC3"},{"bufferView":26,"componentType":5126,"count":60,"max":[0.984375,0.171875],"min":[0.015625,0.078125],"type":"VEC2"},{"bufferView":27,"componentType":5123,"count":72,"max":[59],"min":[0],"type":"SCALAR"}],"materials":[{"pbrMetallicRoughness":{"metallicFactor":0,"roughnessFactor":1,"baseColorTexture":{"index":0}},"alphaMode":"MASK","alphaCutoff":0.05,"doubleSided":true},{"pbrMetallicRoughness":{"metallicFactor":0,"roughnessFactor":1,"baseColorTexture":{"index":1}},"alphaMode":"MASK","alphaCutoff":0.05,"doubleSided":true},{"pbrMetallicRoughness":{"metallicFactor":0,"roughnessFactor":1,"baseColorTexture":{"index":2}},"alphaMode":"MASK","alphaCutoff":0.05,"doubleSided":true}],"textures":[{"sampler":0,"source":0,"name":"whitetile"},{"sampler":1,"source":1,"name":"doortexture"},{"sampler":2,"source":2,"name":"doorknob"}],"samplers":[{"magFilter":9728,"minFilter":9728,"wrapS":33071,"wrapT":33071},{"magFilter":9728,"minFilter":9728,"wrapS":33071,"wrapT":33071},{"magFilter":9728,"minFilter":9728,"wrapS":33071,"wrapT":33071}],"images":[{"mimeType":"image/png","uri":"data:image/png;base64,"},{"mimeType":"image/png","uri":"data:image/png;base64,"},{"mimeType":"image/png","uri":"data:image/png;base64,"}],"meshes":[{"primitives":[{"mode":4,"attributes":{"POSITION":0,"NORMAL":1,"TEXCOORD_0":2},"indices":3,"material":0}]},{"primitives":[{"mode":4,"attributes":{"POSITION":4,"NORMAL":5,"TEXCOORD_0":6},"indices":7,"material":0}]},{"primitives":[{"mode":4,"attributes":{"POSITION":8,"NORMAL":9,"TEXCOORD_0":10},"indices":11,"material":1}]},{"primitives":[{"mode":4,"attributes":{"POSITION":12,"NORMAL":13,"TEXCOORD_0":14},"indices":15,"material":2}]},{"primitives":[{"mode":4,"attributes":{"POSITION":16,"NORMAL":17,"TEXCOORD_0":18},"indices":19,"material":2}]},{"primitives":[{"mode":4,"attributes":{"POSITION":20,"NORMAL":21,"TEXCOORD_0":22},"indices":23,"material":2}]},{"primitives":[{"mode":4,"attributes":{"POSITION":24,"NORMAL":25,"TEXCOORD_0":26},"indices":27,"material":2}]}]}