{"asset":{"version":"2.0","generator":"Blockbench 5.1.3 glTF exporter"},"scenes":[{"nodes":[0,1,2,3,4,5,6],"name":"blockbench_export"}],"scene":0,"nodes":[{"name":"chairbase","mesh":0},{"rotation":[0,0,0.7071067811865476,0.7071067811865476],"translation":[0.3125,0.0625,0.03125],"name":"wheel","mesh":1},{"rotation":[0.5000000000000001,0.5000000000000001,0.5000000000000001,0.5000000000000001],"translation":[0,0.0625,0.3125],"name":"wheel","mesh":2},{"rotation":[0.5000000000000001,0.5000000000000001,0.5000000000000001,0.5000000000000001],"translation":[0,0.0625,-0.25],"name":"wheel","mesh":3},{"rotation":[0,0,-0.7071067811865476,0.7071067811865476],"translation":[-0.3125,0.0625,0.03125],"name":"wheel","mesh":4},{"rotation":[0.5000000000000001,-0.5000000000000001,-0.5000000000000001,0.5000000000000001],"translation":[0,0.0625,-0.25],"name":"wheel","mesh":5},{"rotation":[0.5000000000000001,-0.5000000000000001,-0.5000000000000001,0.5000000000000001],"translation":[0,0.0625,0.3125],"name":"wheel","mesh":6}],"bufferViews":[{"buffer":0,"byteOffset":0,"byteLength":1824,"target":34962,"byteStride":12},{"buffer":0,"byteOffset":1824,"byteLength":1824,"target":34962,"byteStride":12},{"buffer":0,"byteOffset":3648,"byteLength":1216,"target":34962,"byteStride":8},{"buffer":0,"byteOffset":4864,"byteLength":456,"target":34963},{"buffer":0,"byteOffset":5320,"byteLength":720,"target":34962,"byteStride":12},{"buffer":0,"byteOffset":6040,"byteLength":720,"target":34962,"byteStride":12},{"buffer":0,"byteOffset":6760,"byteLength":480,"target":34962,"byteStride":8},{"buffer":0,"byteOffset":7240,"byteLength":144,"target":34963},{"buffer":0,"byteOffset":7384,"byteLength":720,"target":34962,"byteStride":12},{"buffer":0,"byteOffset":8104,"byteLength":720,"target":34962,"byteStride":12},{"buffer":0,"byteOffset":8824,"byteLength":480,"target":34962,"byteStride":8},{"buffer":0,"byteOffset":9304,"byteLength":144,"target":34963},{"buffer":0,"byteOffset":9448,"byteLength":720,"target":34962,"byteStride":12},{"buffer":0,"byteOffset":10168,"byteLength":720,"target":34962,"byteStride":12},{"buffer":0,"byteOffset":10888,"byteLength":480,"target":34962,"byteStride":8},{"buffer":0,"byteOffset":11368,"byteLength":144,"target":34963},{"buffer":0,"byteOffset":11512,"byteLength":720,"target":34962,"byteStride":12},{"buffer":0,"byteOffset":12232,"byteLength":720,"target":34962,"byteStride":12},{"buffer":0,"byteOffset":12952,"byteLength":480,"target":34962,"byteStride":8},{"buffer":0,"byteOffset":13432,"byteLength":144,"target":34963},{"buffer":0,"byteOffset":13576,"byteLength":720,"target":34962,"byteStride":12},{"buffer":0,"byteOffset":14296,"byteLength":720,"target":34962,"byteStride":12},{"buffer":0,"byteOffset":15016,"byteLength":480,"target":34962,"byteStride":8},{"buffer":0,"byteOffset":15496,"byteLength":144,"target":34963},{"buffer":0,"byteOffset":15640,"byteLength":720,"target":34962,"byteStride":12},{"buffer":0,"byteOffset":16360,"byteLength":720,"target":34962,"byteStride":12},{"buffer":0,"byteOffset":17080,"byteLength":480,"target":34962,"byteStride":8},{"buffer":0,"byteOffset":17560,"byteLength":144,"target":34963}],"buffers":[{"byteLength":17704,"uri":"data:application/octet-stream;base64,"}],"accessors":[{"bufferView":0,"componentType":5126,"count":152,"max":[0.3125,1.125,0.3125],"min":[-0.3125,0.0625,-0.4375],"type":"VEC3"},{"bufferView":1,"componentType":5126,"count":152,"max":[1,1,1],"min":[-1,-1,-0.9922778606414795],"type":"VEC3"},{"bufferView":2,"componentType":5126,"count":152,"max":[0.984375,0.171875],"min":[0.015625,0.015625],"type":"VEC2"},{"bufferView":3,"componentType":5123,"count":228,"max":[151],"min":[0],"type":"SCALAR"},{"bufferView":4,"componentType":5126,"count":60,"max":[0.03125,0.03125,0.03737976402044296],"min":[-0.03125,-0.03125,-0.03737976402044296],"type":"VEC3"},{"bufferView":5,"componentType":5126,"count":60,"max":[0.9226372838020325,0.9226372838020325,1],"min":[-0.9226372838020325,-0.9226372838020325,-1],"type":"VEC3"},{"bufferView":6,"componentType":5126,"count":60,"max":[0.984375,0.109375],"min":[0.015625,0.015625],"type":"VEC2"},{"bufferView":7,"componentType":5123,"count":72,"max":[59],"min":[0],"type":"SCALAR"},{"bufferView":8,"componentType":5126,"count":60,"max":[0.03125,0.03125,0.03737976402044296],"min":[-0.03125,-0.03125,-0.03737976402044296],"type":"VEC3"},{"bufferView":9,"componentType":5126,"count":60,"max":[0.9226372838020325,0.9226372838020325,1],"min":[-0.9226372838020325,-0.9226372838020325,-1],"type":"VEC3"},{"bufferView":10,"componentType":5126,"count":60,"max":[0.984375,0.109375],"min":[0.015625,0.015625],"type":"VEC2"},{"bufferView":11,"componentType":5123,"count":72,"max":[59],"min":[0],"type":"SCALAR"},{"bufferView":12,"componentType":5126,"count":60,"max":[0.03125,0.03125,0.03737976402044296],"min":[-0.03125,-0.03125,-0.03737976402044296],"type":"VEC3"},{"bufferView":13,"componentType":5126,"count":60,"max":[0.9226372838020325,0.9226372838020325,1],"min":[-0.9226372838020325,-0.9226372838020325,-1],"type":"VEC3"},{"bufferView":14,"componentType":5126,"count":60,"max":[0.984375,0.109375],"min":[0.015625,0.015625],"type":"VEC2"},{"bufferView":15,"componentType":5123,"count":72,"max":[59],"min":[0],"type":"SCALAR"},{"bufferView":16,"componentType":5126,"count":60,"max":[0.03125,0.03125,0.03737976402044296],"min":[-0.03125,-0.03125,-0.03737976402044296],"type":"VEC3"},{"bufferView":17,"componentType":5126,"count":60,"max":[0.9226372838020325,0.9226372838020325,1],"min":[-0.9226372838020325,-0.9226372838020325,-1],"type":"VEC3"},{"bufferView":18,"componentType":5126,"count":60,"max":[0.984375,0.109375],"min":[0.015625,0.015625],"type":"VEC2"},{"bufferView":19,"componentType":5123,"count":72,"max":[59],"min":[0],"type":"SCALAR"},{"bufferView":20,"componentType":5126,"count":60,"max":[0.03125,0.03125,0.03737976402044296],"min":[-0.03125,-0.03125,-0.03737976402044296],"type":"VEC3"},{"bufferView":21,"componentType":5126,"count":60,"max":[0.9226372838020325,0.9226372838020325,1],"min":[-0.9226372838020325,-0.9226372838020325,-1],"type":"VEC3"},{"bufferView":22,"componentType":5126,"count":60,"max":[0.984375,0.109375],"min":[0.015625,0.015625],"type":"VEC2"},{"bufferView":23,"componentType":5123,"count":72,"max":[59],"min":[0],"type":"SCALAR"},{"bufferView":24,"componentType":5126,"count":60,"max":[0.03125,0.03125,0.03737976402044296],"min":[-0.03125,-0.03125,-0.03737976402044296],"type":"VEC3"},{"bufferView":25,"componentType":5126,"count":60,"max":[0.9226372838020325,0.9226372838020325,1],"min":[-0.9226372838020325,-0.9226372838020325,-1],"type":"VEC3"},{"bufferView":26,"componentType":5126,"count":60,"max":[0.984375,0.109375],"min":[0.015625,0.015625],"type":"VEC2"},{"bufferView":27,"componentType":5123,"count":72,"max":[59],"min":[0],"type":"SCALAR"}],"materials":[{"pbrMetallicRoughness":{"metallicFactor":0,"roughnessFactor":1,"baseColorTexture":{"index":0}},"alphaMode":"MASK","alphaCutoff":0.05,"doubleSided":true},{"pbrMetallicRoughness":{"metallicFactor":0,"roughnessFactor":1,"baseColorTexture":{"index":1}},"alphaMode":"MASK","alphaCutoff":0.05,"doubleSided":true},{"pbrMetallicRoughness":{"metallicFactor":0,"roughnessFactor":1,"baseColorTexture":{"index":2}},"alphaMode":"MASK","alphaCutoff":0.05,"doubleSided":true},{"pbrMetallicRoughness":{"metallicFactor":0,"roughnessFactor":1,"baseColorTexture":{"index":3}},"alphaMode":"MASK","alphaCutoff":0.05,"doubleSided":true}],"textures":[{"sampler":0,"source":0,"name":"texture"},{"sampler":1,"source":1,"name":"chair"},{"sampler":2,"source":2,"name":"texture"},{"sampler":3,"source":3,"name":"wheeltexture"}],"samplers":[{"magFilter":9728,"minFilter":9728,"wrapS":33071,"wrapT":33071},{"magFilter":9728,"minFilter":9728,"wrapS":33071,"wrapT":33071},{"magFilter":9728,"minFilter":9728,"wrapS":33071,"wrapT":33071},{"magFilter":9728,"minFilter":9728,"wrapS":33071,"wrapT":33071}],"images":[{"mimeType":"image/png","uri":"data:image/png;base64,"},{"mimeType":"image/png","uri":"data:image/png;base64,"},{"mimeType":"image/png","uri":"data:image/png;base64,"},{"mimeType":"image/png","uri":"data:image/png;base64,"}],"meshes":[{"primitives":[{"mode":4,"attributes":{"POSITION":0,"NORMAL":1,"TEXCOORD_0":2},"indices":3,"material":0}]},{"primitives":[{"mode":4,"attributes":{"POSITION":4,"NORMAL":5,"TEXCOORD_0":6},"indices":7,"material":1}]},{"primitives":[{"mode":4,"attributes":{"POSITION":8,"NORMAL":9,"TEXCOORD_0":10},"indices":11,"material":2}]},{"primitives":[{"mode":4,"attributes":{"POSITION":12,"NORMAL":13,"TEXCOORD_0":14},"indices":15,"material":3}]},{"primitives":[{"mode":4,"attributes":{"POSITION":16,"NORMAL":17,"TEXCOORD_0":18},"indices":19,"material":1}]},{"primitives":[{"mode":4,"attributes":{"POSITION":20,"NORMAL":21,"TEXCOORD_0":22},"indices":23,"material":3}]},{"primitives":[{"mode":4,"attributes":{"POSITION":24,"NORMAL":25,"TEXCOORD_0":26},"indices":27,"material":2}]}]}