{"asset":{"version":"2.0","generator":"Blockbench 5.1.3 glTF exporter"},"scenes":[{"nodes":[0,1],"name":"blockbench_export"}],"scene":0,"nodes":[{"name":"wallbase","mesh":0},{"translation":[-0.0625,0,0.20625000000000002],"name":"phone","mesh":1}],"bufferViews":[{"buffer":0,"byteOffset":0,"byteLength":6096,"target":34962,"byteStride":12},{"buffer":0,"byteOffset":6096,"byteLength":6096,"target":34962,"byteStride":12},{"buffer":0,"byteOffset":12192,"byteLength":4064,"target":34962,"byteStride":8},{"buffer":0,"byteOffset":16256,"byteLength":1512,"target":34963},{"buffer":0,"byteOffset":17768,"byteLength":1392,"target":34962,"byteStride":12},{"buffer":0,"byteOffset":19160,"byteLength":1392,"target":34962,"byteStride":12},{"buffer":0,"byteOffset":20552,"byteLength":928,"target":34962,"byteStride":8},{"buffer":0,"byteOffset":21480,"byteLength":336,"target":34963}],"buffers":[{"byteLength":21816,"uri":"data:application/octet-stream;base64,"}],"accessors":[{"bufferView":0,"componentType":5126,"count":508,"max":[0.1875,0.5,-0.0625],"min":[-0.0625,0,-0.24340170621871948],"type":"VEC3"},{"bufferView":1,"componentType":5126,"count":508,"max":[1,0.8944271802902222,1],"min":[-1,-0.8944271802902222,-1],"type":"VEC3"},{"bufferView":2,"componentType":5126,"count":508,"max":[0.875,0.875],"min":[0,0],"type":"VEC2"},{"bufferView":3,"componentType":5123,"count":756,"max":[507],"min":[0],"type":"SCALAR"},{"bufferView":4,"componentType":5126,"count":116,"max":[0.1875,0.5,-0.3125],"min":[0.0625,0,-0.5],"type":"VEC3"},{"bufferView":5,"componentType":5126,"count":116,"max":[1,1,1],"min":[-1,-1,-1],"type":"VEC3"},{"bufferView":6,"componentType":5126,"count":116,"max":[0.8125,1],"min":[0,0],"type":"VEC2"},{"bufferView":7,"componentType":5123,"count":168,"max":[115],"min":[0],"type":"SCALAR"}],"materials":[{"pbrMetallicRoughness":{"metallicFactor":0,"roughnessFactor":1,"baseColorTexture":{"index":0}},"alphaMode":"MASK","alphaCutoff":0.05,"doubleSided":true},{"pbrMetallicRoughness":{"metallicFactor":0,"roughnessFactor":1,"baseColorTexture":{"index":1}},"alphaMode":"MASK","alphaCutoff":0.05,"doubleSided":true}],"textures":[{"sampler":0,"source":0,"name":"texture"},{"sampler":1,"source":1,"name":"phone"}],"samplers":[{"magFilter":9728,"minFilter":9728,"wrapS":33071,"wrapT":33071},{"magFilter":9728,"minFilter":9728,"wrapS":33071,"wrapT":33071}],"images":[{"mimeType":"image/png","uri":"data:image/png;base64,"},{"mimeType":"image/png","uri":"data:image/png;base64,"}],"meshes":[{"primitives":[{"mode":4,"attributes":{"POSITION":0,"NORMAL":1,"TEXCOORD_0":2},"indices":3,"material":0}]},{"primitives":[{"mode":4,"attributes":{"POSITION":4,"NORMAL":5,"TEXCOORD_0":6},"indices":7,"material":1}]}]}