{"asset":{"version":"2.0","generator":"Blockbench 5.1.3 glTF exporter"},"scenes":[{"nodes":[0],"name":"blockbench_export"}],"scene":0,"nodes":[{"rotation":[-0.7010573846499779,-0.09229595564125725,0.09229595564125725,0.7010573846499779],"translation":[0,0.625,0],"name":"droplet","mesh":0}],"bufferViews":[{"buffer":0,"byteOffset":0,"byteLength":360,"target":34962,"byteStride":12},{"buffer":0,"byteOffset":360,"byteLength":360,"target":34962,"byteStride":12},{"buffer":0,"byteOffset":720,"byteLength":240,"target":34962,"byteStride":8},{"buffer":0,"byteOffset":960,"byteLength":60,"target":34963}],"buffers":[{"byteLength":1020,"uri":"data:application/octet-stream;base64,"}],"accessors":[{"bufferView":0,"componentType":5126,"count":30,"max":[1.051462173461914,2.5045070184415152e-17,1.6768518686294556],"min":[-1.051462173461914,-1.3689661293920909e-17,-1],"type":"VEC3"},{"bufferView":1,"componentType":5126,"count":30,"max":[5.721710205680759e-17,1,2.120601081063202e-17],"min":[-4.670007959462463e-17,1,-3.133982861915999e-17],"type":"VEC3"},{"bufferView":2,"componentType":5126,"count":30,"max":[0.609375,0.046875],"min":[0.015625,0.015625],"type":"VEC2"},{"bufferView":3,"componentType":5123,"count":30,"max":[29],"min":[0],"type":"SCALAR"}],"materials":[{"pbrMetallicRoughness":{"metallicFactor":0,"roughnessFactor":1,"baseColorTexture":{"index":0}},"alphaMode":"MASK","alphaCutoff":0.05,"doubleSided":true}],"textures":[{"sampler":0,"source":0,"name":"texture"}],"samplers":[{"magFilter":9728,"minFilter":9728,"wrapS":33071,"wrapT":33071}],"images":[{"mimeType":"image/png","uri":"data:image/png;base64,"}],"meshes":[{"primitives":[{"mode":4,"attributes":{"POSITION":0,"NORMAL":1,"TEXCOORD_0":2},"indices":3,"material":0}]}]}