{"asset":{"version":"2.0","generator":"Blockbench 5.1.4 glTF exporter"},"scenes":[{"nodes":[1],"name":"blockbench_export"}],"scene":0,"nodes":[{"translation":[0.0625,-0.8125,0.125],"name":"officedoor","mesh":0},{"translation":[-0.0625,0.8125,0.75],"name":"WholeOfficeDoor","children":[0]}],"bufferViews":[{"buffer":0,"byteOffset":0,"byteLength":3504,"target":34962,"byteStride":12},{"buffer":0,"byteOffset":3504,"byteLength":3504,"target":34962,"byteStride":12},{"buffer":0,"byteOffset":7008,"byteLength":2336,"target":34962,"byteStride":8},{"buffer":0,"byteOffset":9344,"byteLength":480,"target":34963},{"buffer":0,"byteOffset":9824,"byteLength":144,"target":34963},{"buffer":0,"byteOffset":9968,"byteLength":24,"target":34963},{"buffer":0,"byteOffset":9992,"byteLength":144,"target":34963}],"buffers":[{"byteLength":10136,"uri":"data:application/octet-stream;base64,"}],"accessors":[{"bufferView":0,"componentType":5126,"count":292,"max":[1,2,0.125],"min":[-1,0,-1.875],"type":"VEC3"},{"bufferView":1,"componentType":5126,"count":292,"max":[1,1,1],"min":[-1,-1,-1],"type":"VEC3"},{"bufferView":2,"componentType":5126,"count":292,"max":[0.984375,0.5625],"min":[0,0],"type":"VEC2"},{"bufferView":3,"componentType":5123,"count":240,"max":[163],"min":[0],"type":"SCALAR"},{"bufferView":4,"componentType":5123,"count":72,"max":[223],"min":[164],"type":"SCALAR"},{"bufferView":5,"componentType":5123,"count":12,"max":[231],"min":[224],"type":"SCALAR"},{"bufferView":6,"componentType":5123,"count":72,"max":[291],"min":[232],"type":"SCALAR"}],"materials":[{"pbrMetallicRoughness":{"metallicFactor":0,"roughnessFactor":1,"baseColorTexture":{"index":0}},"alphaMode":"MASK","alphaCutoff":0.05,"doubleSided":true},{"pbrMetallicRoughness":{"metallicFactor":0,"roughnessFactor":1,"baseColorTexture":{"index":1}},"alphaMode":"MASK","alphaCutoff":0.05,"doubleSided":true},{"pbrMetallicRoughness":{"metallicFactor":0,"roughnessFactor":1,"baseColorTexture":{"index":2}},"alphaMode":"MASK","alphaCutoff":0.05,"doubleSided":true}],"textures":[{"sampler":0,"source":0,"name":"doortexture"},{"sampler":1,"source":1,"name":"doorknob"},{"sampler":2,"source":2,"name":"whitetile"}],"samplers":[{"magFilter":9728,"minFilter":9728,"wrapS":33071,"wrapT":33071},{"magFilter":9728,"minFilter":9728,"wrapS":33071,"wrapT":33071},{"magFilter":9728,"minFilter":9728,"wrapS":33071,"wrapT":33071}],"images":[{"mimeType":"image/png","uri":"data:image/png;base64,"},{"mimeType":"image/png","uri":"data:image/png;base64,"},{"mimeType":"image/png","uri":"data:image/png;base64,"}],"meshes":[{"primitives":[{"mode":4,"attributes":{"POSITION":0,"NORMAL":1,"TEXCOORD_0":2},"indices":3,"material":0},{"mode":4,"attributes":{"POSITION":0,"NORMAL":1,"TEXCOORD_0":2},"indices":4,"material":1},{"mode":4,"attributes":{"POSITION":0,"NORMAL":1,"TEXCOORD_0":2},"indices":5,"material":2},{"mode":4,"attributes":{"POSITION":0,"NORMAL":1,"TEXCOORD_0":2},"indices":6,"material":1}]}]}