{"asset":{"version":"2.0","generator":"Blockbench 5.1.4 glTF exporter"},"scenes":[{"nodes":[1],"name":"blockbench_export"}],"scene":0,"nodes":[{"name":"blueserverdoor","mesh":0},{"translation":[0,0.875,0.9375],"name":"WholeBlueTile","children":[0]}],"bufferViews":[{"buffer":0,"byteOffset":0,"byteLength":4944,"target":34962,"byteStride":12},{"buffer":0,"byteOffset":4944,"byteLength":4944,"target":34962,"byteStride":12},{"buffer":0,"byteOffset":9888,"byteLength":3296,"target":34962,"byteStride":8},{"buffer":0,"byteOffset":13184,"byteLength":1212,"target":34963},{"buffer":0,"byteOffset":14396,"byteLength":24,"target":34963}],"buffers":[{"byteLength":14420,"uri":"data:application/octet-stream;base64,"}],"accessors":[{"bufferView":0,"componentType":5126,"count":412,"max":[1,1.15625,0.0625],"min":[-1,-0.875,-1.9375],"type":"VEC3"},{"bufferView":1,"componentType":5126,"count":412,"max":[1,1,1],"min":[-1,-1,-1],"type":"VEC3"},{"bufferView":2,"componentType":5126,"count":412,"max":[0.53125,0.5078125],"min":[0,0],"type":"VEC2"},{"bufferView":3,"componentType":5123,"count":606,"max":[403],"min":[0],"type":"SCALAR"},{"bufferView":4,"componentType":5123,"count":12,"max":[411],"min":[404],"type":"SCALAR"}],"materials":[{"pbrMetallicRoughness":{"metallicFactor":0,"roughnessFactor":1,"baseColorTexture":{"index":0}},"alphaMode":"MASK","alphaCutoff":0.05,"doubleSided":true},{"pbrMetallicRoughness":{"metallicFactor":0,"roughnessFactor":1,"baseColorTexture":{"index":1}},"alphaMode":"MASK","alphaCutoff":0.05,"doubleSided":true}],"textures":[{"sampler":0,"source":0,"name":"door"},{"sampler":1,"source":1,"name":"texture"}],"samplers":[{"magFilter":9728,"minFilter":9728,"wrapS":33071,"wrapT":33071},{"magFilter":9728,"minFilter":9728,"wrapS":33071,"wrapT":33071}],"images":[{"mimeType":"image/png","uri":"data:image/png;base64,"},{"mimeType":"image/png","uri":"data:image/png;base64,"}],"meshes":[{"primitives":[{"mode":4,"attributes":{"POSITION":0,"NORMAL":1,"TEXCOORD_0":2},"indices":3,"material":0},{"mode":4,"attributes":{"POSITION":0,"NORMAL":1,"TEXCOORD_0":2},"indices":4,"material":1}]}]}